<svg xmlns="http://www.w3.org/2000/svg" version="1.1" xmlns:xlink="http://www.w3.org/1999/xlink" xmlns:svgjs="http://svgjs.com/svgjs" width="1440" height="560" preserveAspectRatio="none" viewBox="0 0 1440 560"><g mask="url(&quot;#SvgjsMask1149&quot;)" fill="none"><rect width="1440" height="560" x="0" y="0" fill="url(#SvgjsLinearGradient1150)"></rect><path d="M0 448.87L10 436.2L20 375.53L30 357.44L40 346.93L50 382.49L60 370.25L70 398.44L80 459.5L90 393.21L100 430.97L110 474.81L120 531.45L130 505.45L140 546.67L150 529.51L160 459.74L170 422.5L180 424.4L190 486.38L200 432.57L210 429.36L220 478.75L230 451.41L240 475.61L250 508.76L260 545.99L270 555.45L280 506.3L290 495.88L300 500.45L310 493.92L320 425.46L330 452.12L340 390.71L350 379.13L360 401.57L370 398.81L380 449.36L390 389.63L400 349.25L410 399.41L420 439.28L430 437.54L440 420.04L450 467.57L460 512.09L470 519.67L480 507.76L490 523.48L500 463.03L510 435.01L520 488.54L530 457.6L540 408.11L550 390.73L560 345.63L570 388L580 456.72L590 502.33L600 558.78L610 509.8L620 502.21L630 486.1L640 531.51L650 531.39L660 534.47L670 535.88L680 513.52L690 545.24L700 479.71L710 534.36L720 518.81L730 537.96L740 508.15L750 516.55L760 559.31L770 506.72L780 451.46L790 518.23L800 474.74L810 541.12L820 529.63L830 504.41L840 540.25L850 511.5L860 450.46L870 447.04L880 489.27L890 511.69L900 463.98L910 450.19L920 471.62L930 489.86L940 551.8L950 512.2L960 548.21L970 541.33L980 546.32L990 525.15L1000 534.93L1010 469.69L1020 451.43L1030 449.65L1040 518.65L1050 512.42L1060 488.4L1070 516.06L1080 474.71L1090 449.3L1100 512.16L1110 453.44L1120 515.25L1130 485.01L1140 431.69L1150 453.11L1160 448.72L1170 469.98L1180 507.62L1190 480.91L1200 443.89L1210 477.4L1220 520.44L1230 519.45L1240 467.33L1250 442.31L1260 421.84L1270 405.1L1280 394.73L1290 464.02L1300 462L1310 423.3L1320 419.41L1330 352.04L1340 312.66L1350 360.86L1360 301.34L1370 336.37L1380 349.94L1390 364.21L1400 366.87L1410 321.66L1420 382.77L1430 354.85L1440 330.22" stroke="#224b75" stroke-width="2"></path><path d="M0 448.87L10 436.2L20 375.53L30 357.44L40 346.93L50 382.49L60 370.25L70 398.44L80 459.5L90 393.21L100 430.97L110 474.81L120 531.45L130 505.45L140 546.67L150 529.51L160 459.74L170 422.5L180 424.4L190 486.38L200 432.57L210 429.36L220 478.75L230 451.41L240 475.61L250 508.76L260 545.99L270 555.45L280 506.3L290 495.88L300 500.45L310 493.92L320 425.46L330 452.12L340 390.71L350 379.13L360 401.57L370 398.81L380 449.36L390 389.63L400 349.25L410 399.41L420 439.28L430 437.54L440 420.04L450 467.57L460 512.09L470 519.67L480 507.76L490 523.48L500 463.03L510 435.01L520 488.54L530 457.6L540 408.11L550 390.73L560 345.63L570 388L580 456.72L590 502.33L600 558.78L610 509.8L620 502.21L630 486.1L640 531.51L650 531.39L660 534.47L670 535.88L680 513.52L690 545.24L700 479.71L710 534.36L720 518.81L730 537.96L740 508.15L750 516.55L760 559.31L770 506.72L780 451.46L790 518.23L800 474.74L810 541.12L820 529.63L830 504.41L840 540.25L850 511.5L860 450.46L870 447.04L880 489.27L890 511.69L900 463.98L910 450.19L920 471.62L930 489.86L940 551.8L950 512.2L960 548.21L970 541.33L980 546.32L990 525.15L1000 534.93L1010 469.69L1020 451.43L1030 449.65L1040 518.65L1050 512.42L1060 488.4L1070 516.06L1080 474.71L1090 449.3L1100 512.16L1110 453.44L1120 515.25L1130 485.01L1140 431.69L1150 453.11L1160 448.72L1170 469.98L1180 507.62L1190 480.91L1200 443.89L1210 477.4L1220 520.44L1230 519.45L1240 467.33L1250 442.31L1260 421.84L1270 405.1L1280 394.73L1290 464.02L1300 462L1310 423.3L1320 419.41L1330 352.04L1340 312.66L1350 360.86L1360 301.34L1370 336.37L1380 349.94L1390 364.21L1400 366.87L1410 321.66L1420 382.77L1430 354.85L1440 330.22L1440 560L0 560z" fill="url(#SvgjsLinearGradient1151)"></path></g><defs><mask id="SvgjsMask1149"><rect width="1440" height="560" fill="#ffffff"></rect></mask><linearGradient x1="50%" y1="100%" x2="50%" y2="0%" gradientUnits="userSpaceOnUse" id="SvgjsLinearGradient1150"><stop stop-color="#0e2a47" offset="0"></stop><stop stop-color="rgba(23, 63, 165, 1)" offset="1"></stop></linearGradient><linearGradient x1="50%" y1="0%" x2="50%" y2="100%" id="SvgjsLinearGradient1151"><stop stop-opacity="0.65" stop-color="#224b75" offset="0"></stop><stop stop-opacity="0" stop-color="#508dcc" offset="0.8"></stop></linearGradient></defs></svg>